# xmcd
#
# Track frame offsets: 
#        150
#        14455
#        26542
#        45735
#        64712
#        84092
#        104957
#        122372
#        132602
#        158990
#        176600
#        191625
#        207837
#        221809
#        240034
#
# Disc length: 3427 seconds
#
# Revision: 0
# Processed by: cddbd v1.4PL0 Copyright (c) Steve Scherf et al.
# Submitted via: ExactAudioCopy v0.90b3
#
DISCID=cd0d610f
DTITLE=The Groundhogs - Hogs In Wolf's Clothing
DYEAR=1997
DGENRE=Blues
TTITLE0=Smokestack Lightnin'
TTITLE1=Baby, How Long
TTITLE2=Commit a Crime
TTITLE3=Forty Four
TTITLE4=No Place To Go
TTITLE5=Ain't Superstitious
TTITLE6=Evil
TTITLE7=So Glad
TTITLE8=My Life
TTITLE9=Sittin' on Top of the World
TTITLE10=Shake for Me
TTITLE11=Wang Dang Doodle
TTITLE12=How Many More Years
TTITLE13=Nature
TTITLE14=Down in the Bottom
EXTD=
EXTT0=
EXTT1=
EXTT2=
EXTT3=
EXTT4=
EXTT5=
EXTT6=
EXTT7=
EXTT8=
EXTT9=
EXTT10=
EXTT11=
EXTT12=
EXTT13=
EXTT14=
PLAYORDER=
